<?xml version="1.0" encoding="iso-8859-1"?>
<!-- Generator: Adobe Illustrator 22.0.1, SVG Export Plug-In . SVG Version: 6.00 Build 0)  -->
<svg version="1.1" xmlns="http://www.w3.org/2000/svg" xmlns:xlink="http://www.w3.org/1999/xlink" x="0px" y="0px"
	 viewBox="0 0 64 64" style="enable-background:new 0 0 64 64;" xml:space="preserve">
<g id="_x31_1">
	<path style="fill:#AAD15D;" d="M48.432,33.527c-2.306,0.392-4.122,1.338-5.163,2.408c-1.684,1.73-2.501,3.807-2.882,5.589
		c-0.721,0.208-1.505,0.374-2.338,0.508c2.623-13.375,2.803-19.777,2.807-20.163l-5.421,19.751c0,0-0.262-0.139-0.682-0.412
		c0.185-2.884-0.16-6.451-2.039-9.851c-0.813-1.465-2.25-2.995-4.223-4.314c1.334-4.134,5.251-9.06,13.783-14.654
		C46.537,18.855,49.83,27.263,48.432,33.527z"/>
	<path style="fill:#90B74B;" d="M30.869,32.421c-0.813-1.465-2.25-2.995-4.223-4.314C21.159,24.441,11.563,22.447,0,28.25
		c8.38,3.457,3.585,14.288,11.795,20.296c8.205,6.016,17.619,1.316,17.619,1.316s-6.256-8.542-12.283-15.687
		c3.066,1.558,14.551,14.12,14.551,14.12s1.003-2.513,1.226-6.024C33.093,39.388,32.748,35.821,30.869,32.421z M49.494,35.375
		c-2.306,0.392-4.122,1.338-5.163,2.408c-1.684,1.73-2.501,3.807-2.882,5.589c-0.484,2.257-0.276,4.03-0.276,4.03
		s9.164-5.798,11.308-6.246c-4.903,3.387-10.177,7.584-10.177,7.584s4.998,4.473,11.05,2.146c6.054-2.321,4.92-9.777,10.645-10.498
		C58.746,35.671,53.416,34.71,49.494,35.375z"/>
</g>
<g id="Layer_1">
</g>
</svg>
